<?xml version="1.0" standalone="no"?>
<!DOCTYPE svg PUBLIC "-//W3C//DTD SVG 20010904//EN"
 "http://www.w3.org/TR/2001/REC-SVG-20010904/DTD/svg10.dtd">
<svg version="1.0" xmlns="http://www.w3.org/2000/svg"
 width="600.000000pt" height="600.000000pt" viewBox="0 0 600.000000 600.000000"
 preserveAspectRatio="xMidYMid meet">
<metadata>
Created by potrace 1.14, written by Peter Selinger 2001-2017
</metadata>
<g transform="translate(0.000000,600.000000) scale(0.100000,-0.100000)"
fill="#000000" stroke="none">
<path d="M2985 5410 c-143 -16 -339 -50 -456 -79 -166 -42 -292 -82 -283 -90
5 -5 36 -18 69 -31 180 -69 451 -212 640 -336 418 -274 747 -612 991 -1020 27
-45 298 438 379 675 72 212 114 428 115 593 l0 77 -102 39 c-178 68 -383 122
-608 157 -122 20 -614 29 -745 15z"/>
<path d="M2000 5156 c-301 -136 -537 -277 -750 -450 -312 -253 -566 -561 -728
-881 -28 -55 -49 -101 -47 -103 1 -2 72 28 156 67 788 356 1642 560 2347 561
89 0 162 4 162 8 0 5 -19 35 -41 68 -164 234 -434 482 -688 632 -104 61 -277
142 -301 141 -8 0 -58 -19 -110 -43z"/>
<path d="M4560 5018 c-1 -696 -267 -1446 -721 -2035 -44 -56 -79 -105 -79
-109 0 -4 71 -4 158 -1 609 26 1214 169 1725 410 134 63 123 43 107 208 -39
386 -192 755 -437 1059 -169 209 -453 439 -691 559 l-62 31 0 -122z"/>
<path d="M2010 4009 c-358 -21 -740 -96 -1105 -216 -164 -54 -426 -158 -472
-188 -16 -11 -34 -50 -63 -142 -233 -727 -83 -1451 414 -2004 26 -29 48 -50
49 -48 2 2 24 90 50 194 149 609 388 1184 698 1677 141 225 335 479 485 638
79 83 94 102 77 99 -5 -1 -64 -5 -133 -10z"/>
<path d="M5670 3154 c-36 -19 -139 -70 -230 -113 -524 -247 -1111 -427 -1680
-515 -331 -51 -454 -60 -808 -61 -182 0 -332 -2 -332 -5 0 -13 126 -231 184
-319 287 -434 659 -805 1104 -1099 l144 -95 141 71 c378 188 743 475 995 780
306 372 519 856 557 1262 3 36 8 80 11 98 6 41 -4 41 -86 -4z"/>
<path d="M1764 3032 c-361 -461 -644 -1031 -785 -1581 -21 -85 -38 -155 -36
-156 1 -1 33 -28 72 -60 38 -33 124 -94 190 -137 323 -212 677 -342 1100 -405
94 -14 183 -18 415 -18 314 0 412 9 658 59 186 38 482 126 482 144 0 4 -62 46
-138 94 -585 369 -1101 838 -1456 1325 -163 224 -337 540 -403 730 -15 46 -30
83 -33 83 -3 0 -32 -35 -66 -78z"/>
</g>
</svg>
