<svg version="1" xmlns="http://www.w3.org/2000/svg" width="400" height="400" viewBox="0 0 300.000000 300.000000"><path d="M150.4 27c-10.2 1-24.9 3.9-33.9 6.8l-6 1.9 3 1.3c20.5 9 32.5 15.9 46 26.4 11 8.7 26 24.6 32.9 35 3.2 4.7 6 8.6 6.2 8.6 1 0 10-15 13.9-23.3 6.6-13.9 9.6-25.3 9.8-36.7l.2-9.5-11-3.7c-18.2-6-41.4-8.6-61.1-6.8z"/><path d="M96 41.4C72.6 51.8 50.1 69.7 35.4 89.5c-5.8 7.8-14 22.2-13.2 23.1.3.2 6-2 12.9-5C73.5 91.1 117.2 81 150.8 81h7.3l-3.3-4.6c-5.8-8-13.8-16.3-22.5-23.1-8.5-6.6-23.9-15.3-27.1-15.3-.9 0-5.1 1.6-9.2 3.4zM229 47c0 32.7-13.6 72-34.6 100.2l-6.2 8.3 6.2.3c22.7 1.2 61.6-7.6 89-20.1l6.9-3.1-.7-7.6c-2.1-25.1-15.3-50.4-35.3-67.5-7.1-6.1-22.6-16.5-24.5-16.5-.4 0-.8 2.7-.8 6zM85 99.5c-20.8 2.9-46.4 10.1-60 16.8l-6.5 3.2-2.3 7.4c-9.5 30.9-5.2 63.8 11.4 88.2C32.3 221.9 39 230 39.9 230c.4 0 1.4-2.6 2.1-5.8 2.3-10.7 8-29.1 12.4-40.4 12.7-32.6 26.5-55.6 48.7-81.1l4.1-4.7-6.3.1c-3.5.1-10.7.7-15.9 1.4z"/><path d="M275.9 145.9c-40.3 19.6-84.9 30.2-127.6 30.5l-18.2.1 3.7 6.7c12.6 23 36.3 48.4 60.3 64.6 4.2 2.9 8.4 5.2 9.3 5.2.9 0 4.8-1.6 8.6-3.5 35.6-17.9 63.6-50 73.5-84.1 2.2-7.7 5.2-25.2 4.4-25.8-.2-.2-6.5 2.7-14 6.3z"/><path d="M86.8 148.2c-9.3 11.7-18.7 27-26 42.4-5.5 11.8-13.5 34.6-14.4 41.6l-.6 4.5 6.3 4.7c35.3 26.5 85.1 33.6 133.2 19 4.8-1.5 8.7-3 8.7-3.3-.1-.3-5.3-3.9-11.6-8-29.7-19.3-55.4-43.8-72.9-69.6-6.3-9.3-17.5-30.5-17.5-33.2 0-2.8-2.1-2-5.2 1.9z"/></svg>